<svg width="200" height="200" viewBox="0 0 200 200" xmlns="http://www.w3.org/2000/svg">
  <!-- Green background circle -->
  <circle cx="100" cy="100" r="100" fill="#1B5E20"/>
  
  <!-- White/cream inner circle -->
  <circle cx="100" cy="100" r="75" fill="#FFF8E1"/>
  
  <!-- Agricultural emblem design -->
  <g transform="translate(100, 100)">
    <!-- Central wheat stalk -->
    <g>
      <!-- Stem -->
      <rect x="-1.5" y="-35" width="3" height="65" fill="#8D6E63"/>
      
      <!-- Central wheat head -->
      <g transform="translate(0, -35)">
        <!-- Wheat grains -->
        <ellipse cx="0" cy="-5" rx="4" ry="7" fill="#D4A574"/>
        <ellipse cx="0" cy="-15" rx="4" ry="7" fill="#D4A574"/>
        <ellipse cx="0" cy="-25" rx="4" ry="7" fill="#D4A574"/>
        
        <!-- Wheat awns (bristles) -->
        <line x1="0" y1="-32" x2="0" y2="-40" stroke="#8D6E63" stroke-width="1"/>
        <line x1="-2" y1="-30" x2="-4" y2="-38" stroke="#8D6E63" stroke-width="1"/>
        <line x1="2" y1="-30" x2="4" y2="-38" stroke="#8D6E63" stroke-width="1"/>
      </g>
    </g>
    
    <!-- Left wheat branches -->
    <g transform="rotate(-30)">
      <rect x="-1" y="-30" width="2" height="50" fill="#8D6E63"/>
      <g transform="translate(0, -30)">
        <ellipse cx="0" cy="-3" rx="3" ry="5" fill="#D4A574"/>
        <ellipse cx="0" cy="-10" rx="3" ry="5" fill="#D4A574"/>
        <ellipse cx="0" cy="-17" rx="3" ry="5" fill="#D4A574"/>
      </g>
    </g>
    
    <!-- Right wheat branches -->
    <g transform="rotate(30)">
      <rect x="-1" y="-30" width="2" height="50" fill="#8D6E63"/>
      <g transform="translate(0, -30)">
        <ellipse cx="0" cy="-3" rx="3" ry="5" fill="#D4A574"/>
        <ellipse cx="0" cy="-10" rx="3" ry="5" fill="#D4A574"/>
        <ellipse cx="0" cy="-17" rx="3" ry="5" fill="#D4A574"/>
      </g>
    </g>
    
    <!-- Far left wheat branches -->
    <g transform="rotate(-50)">
      <rect x="-0.8" y="-25" width="1.6" height="40" fill="#8D6E63"/>
      <g transform="translate(0, -25)">
        <ellipse cx="0" cy="-2" rx="2.5" ry="4" fill="#D4A574"/>
        <ellipse cx="0" cy="-8" rx="2.5" ry="4" fill="#D4A574"/>
        <ellipse cx="0" cy="-14" rx="2.5" ry="4" fill="#D4A574"/>
      </g>
    </g>
    
    <!-- Far right wheat branches -->
    <g transform="rotate(50)">
      <rect x="-0.8" y="-25" width="1.6" height="40" fill="#8D6E63"/>
      <g transform="translate(0, -25)">
        <ellipse cx="0" cy="-2" rx="2.5" ry="4" fill="#D4A574"/>
        <ellipse cx="0" cy="-8" rx="2.5" ry="4" fill="#D4A574"/>
        <ellipse cx="0" cy="-14" rx="2.5" ry="4" fill="#D4A574"/>
      </g>
    </g>
    
    <!-- Decorative leaves at base -->
    <g transform="translate(0, 20)">
      <!-- Left leaf -->
      <path d="M -5,0 Q -15,-5 -20,-15 Q -15,-10 -5,-5 Q -10,-3 -5,0" 
            fill="#689F38" stroke="#33691E" stroke-width="1"/>
      <!-- Right leaf -->
      <path d="M 5,0 Q 15,-5 20,-15 Q 15,-10 5,-5 Q 10,-3 5,0" 
            fill="#689F38" stroke="#33691E" stroke-width="1"/>
    </g>
    
    <!-- Circular wreath border (optional decorative element) -->
    <circle cx="0" cy="0" r="55" fill="none" stroke="#8D6E63" stroke-width="1" opacity="0.3"/>
  </g>
</svg>
